<?xml version="1.0" encoding="utf-8"?>
<!-- Generator: Adobe Illustrator 21.1.0, SVG Export Plug-In . SVG Version: 6.00 Build 0)  -->
<svg version="1.1" id="Layer_1" xmlns="http://www.w3.org/2000/svg" xmlns:xlink="http://www.w3.org/1999/xlink" x="0px" y="0px"
	 viewBox="0 0 1112 869.9" style="enable-background:new 0 0 1112 869.9;" xml:space="preserve">
<style type="text/css">
	.st0{fill:#FFFCCC;stroke:#000000;}
	.st1{fill:#19FC00;stroke:#000000;}
	.st2{fill:#00B7FF;stroke:#000000;}
	.st3{fill:#FFFFFF;stroke:#000000;}
	.st4{fill:#050505;stroke:#000000;}
	.st5{fill:none;stroke:#000000;}
	.st6{fill:none;stroke:#EAE6BE;}
	.st7{stroke:#000000;}
</style>
<title>Artboard 2</title>
<g id="Layer_1_1_">
	<path class="st0" d="M530,735.2c0,0,22,1,23.3,4.3s-16.3,14-16.3,14l-13-1l-13.3-2.3l-5.8-6l12.8-15.5L530,735.2z"/>
	<path class="st1" d="M491.5,736.7c0,0-5,0.3-5.5,7s0.3,14.8,7.3,15s26.3-5.3,32.3-5.3s10.3,6.8,23,5.5s22-4,25.3-9.5
		c0,0,1.3-5.5-1-6.5s-11.8-4.8-13.5-4.3s-1.5,1.5-2.5,1c-2.3-1.4-4.9-2.5-7.5-3.3c-3.5-0.8-3.8,0.3-3.8,0.3s4.3,1.3,4.8,2.8
		c0,0-0.3,1.8,0.5,2.5c0,0-6.3,9-22,9.5S506,739,506,739L491.5,736.7z"/>
	<path class="st0" d="M504.3,742.5c0,0,0.3,13.7,0,19.3s-1.3,9.7,0,13s9.3,11.7,9.7,12.7s17.3,10.7,29.3,10s26.3-11,26.3-11
		c-0.5-1.5-0.8-3.1-0.7-4.7c0-3.3-1.7-7.3-4.7-8.3s-20.3-2.7-27.3-10s-4.7-28.3-4.7-28.3L504.3,742.5z"/>
	<path class="st1" d="M504.1,769.5c-0.5,1.3-0.5,2.7,0.1,4c1,2,9.5,12.4,10.1,13.9c0.6,1.5,23.9,10.8,31.5,9.6
		c7.6-1.2,18.8-3.9,23-10.4c-0.4-1.6-0.4-3.2-0.3-4.8c0.1-1.2,0.2-2.3,0.4-3.5c0,0-4.5-5.1-7.4-5.8c3.2,0.1,6.4,0.7,9.5,1.6
		c4.6,1.5,5.5,2.5,6.4,2.4s11.9-1,14.5,3.5s3.4,15.4-10.1,18.8s-10.9,3.1-13.6,2.9s-22.1-2.1-26.8-2.5s-11.9-2.8-16.7-2.8
		s-8.6,0.3-10.3-0.4s-12-0.3-14.9-6S497.8,774.7,504.1,769.5z"/>
	<path class="st2" d="M480,433.1c0,0-14.7,14-16,33.3s6.7,32,10,38.7c4.3,8.6,16.2,15.7,18,22c1.3,4.7-5.3,34.7-4,40.7
		s4,19.3,2.7,26s-7.3,25.3-10.7,45.3s-6.7,44.7-8,50.7l-1.3,6c0,0,4.7,12.7,25.3,8s50.7-246.7,50.7-246.7L480,433.1z"/>
	<path class="st2" d="M478.7,501.8c0,0,6,16,13.3,25.3s10,13.3,10,13.3s0.7,18,0.7,25.3s2.7,6.7,2,10.7s-3.3,11.3-2.7,18.7
		s4,19.3,1.3,29.3s-8.7,55.3-11.3,66s-2,18-2.7,26.7c-0.5,5.7-1.9,11.3-4,16.7c0,0,4,12,22,13.3s28.7-7.3,28.7-7.3
		s1.3-30.7,4.7-49.3s6-26.7,6.7-30c0.4-1.8,0.4-3.6,0-5.3c0,0,11.3-20.7,10.7-24s-2.7-4.7-2.7-8s14.7-30.7,18.7-82s-2-56-2-56
		s3.3-1.3,4.7-6.7s4-10.7,2-13.3s-44-26.7-44-26.7l-38-11.3"/>
	<path class="st3" d="M569.7,114.8c0,0,12.7,11.7-2.7,39.7s2,25.7,2,25.7l12-14c0,0,8.7-20.7,6.3-28.7"/>
	<path class="st0" d="M542.7,142.8c0,0,4-6,6.3-10.3s3.7-10,8.3-13.3s15.7-6.7,15.7-6.7l5.3,15c0,0-8.7,8.7-10.3,12.7
		s-6.3,13.7-6.3,13.7L542.7,142.8z"/>
	<path class="st0" d="M595.7,165.1c0,0-14-31.7-17-33s-8-3-10-5.7s-2.7-9.7-2.7-12.3s2.7-10.7,2.7-10.7c1-1.7,2.1-3.4,3.3-5
		c1-1,3.3-0.3,4.7-1s3.3-2.7,6-3s2,1.7,3.7,2.3s5,0.3,6.3,1s2.7,3.7,4.3,4s3,0,4.7,1.7c1.7,1.9,2.5,4.5,2.3,7c-0.3,1.7,0.3,4-1.7,8
		c0,0,22,36,23,42"/>
	<path class="st4" d="M575.3,212.1c0,0-5,4.3-4.3,7.7s3.7,3.7,1.7,5.3s2.7,0.3,0.7,3.3s2,2,0.3,5s4.3,2.3,1.7,3s-1.3,1-3.3,3
		s1.7,3.7-2,4s-7.3-1.7-10.3-1.3s-10.3,2-10.3,2l-51,10.7c0,0-15.7-2-17-1s-7.7-9-7.7-9l8.3-20.7l29.3-26L575.3,212.1z"/>
	<path class="st1" d="M462.8,279.3c0,0-2.5,30,7.5,48.3s17.5,42.5,16.7,51.7s-0.8,45-10,53.3s39.2,37.5,65.8,41.7s30-1.7,30-1.7
		s10.8-40,15.8-80.8s2.5-70.8,2.5-70.8s-5-6.7-5.8-13.3c-1.5-11.8-2.3-10.6-2.7-11.8c0,0-2.5,0.5-3.3-5.3s1-5.3,13.5-12
		s37.5-20,46.7-30s15.8-15.8,15.8-18.3s-11.7-48.3-15.8-52.5S632,171,632,166c0-3.3,0.3-6.7,0.8-10c0,0-12.5-2.5-19.2-1.7
		s-18.3,7.5-18.3,7.5c-1.9,11.1-1,22.6,2.5,33.3c5.8,17.5,11.7,24.2,7.5,26.7s-16.8,11.5-25.8,15.8c-7.5,3.6-7.5,7.1-12.5,6.3
		s-9.5-3-14.5,3c0,0-16.8-10.3-26-10s-14.8,8.5-16,9s-1.3-1.5-4.3-0.5s-9,5.8-12,7.3l-2,1c0,0-2.3-4.8-5.5-4.5s-7.5,4.8-10.5,4.5
		s-2.8-2-2.8-5.5s-0.5-0.8-2.5-1s-3-1.5-3-5.3s-1.3-1.8-1.3-1.8s-13.3,13-13.3,19.3s-1.3,8.5,1,11.5S462.4,274.4,462.8,279.3z"/>
	<path class="st3" d="M558.3,100.8c0,0,51.3,7,62,31.3s9.3,29.3,9.3,29.3s-30.7,109.3-73,153.7s-86.3-59-89.7-87
		s10.7-35.7,10.7-35.7s19,126.7,61.3,113s70-129.7,70-137s4-40-14.3-41.7s-44-2.3-44-2.3L558.3,100.8z"/>
	<path class="st4" d="M576.5,225.5c0.7,0.7-5-9.5-5.8-8.6s-0.5,9.2,0.5,9.8s1.7,3.2,0.3,5.7s-3.2,1-2.5,1.9s-0.7,2-0.5,3.7
		s0.7,1.9,0.9,3c0.2,1.1-2.2,1.5-2.2,2.4s2.4,0.5,2.5,1.7c0.1,1.2-3,1.9-3.7,1.5c-0.7-0.4,0-1.3,0-2.5s-1.7,2.6-1.7,2.6l1.2-0.3
		c1.2-0.3,2.5-0.2,2.5-1.2s-2.9-0.9-3.5-1.4c-0.6-0.5-0.8-0.8,0.5-1.9c1.3-1.1,1.4,0,1.7-0.7c0.3-0.7-1.2-0.5-2.5-0.7
		c-1.3-0.2-0.5-0.3-0.7-2.4c-0.2-2.1-0.5-1.7,1.2-2.5c1.7-0.8,0.2-1.2,0.2-1.2c-0.8-1.1-1.1-2.5-0.9-3.9c0.5-1.9,0.3-6.5-1.4-7.6
		c-1.7-1.1-5.4,4.7-5.4,7.6s0.8-0.5,1.4,1.4c0.6,1.9-0.5,6.2,0.2,7.9c0.7,1.7-2-1.3-3.7-0.6c-1.7,0.7-0.7-1.7-1-2.9
		c-0.3-1.2-2,1-1.9,2.5s-1,2.5-0.3,3.4s0.2-0.5,1.5,0.9s0.7,3.2-0.8,4.6s-1.9-0.5-1.9-1.5s0.9-0.9-1.5-0.5c-2.4,0.4-3.2-3-4-3.7
		c-0.8-0.7-3.5-2.9-2.9,0.3c0.6,2.7,1.7-0.2,1.9,2.4c0.2,2.6-4.4-0.5-6.4-2.7s-2,1.4-1.4,3c0.6,1.6-1.7-1.6-2.8-1.3
		s-2.4-2.7-3.7-3.4c-1.3-0.7-9-0.7-7.1,1.7s3,0.8-1.7,5.2s-3.7,0.8-6.1-3c-2.4-3.8-4-1.9-5.9-2.9s-1.7-5.9-2.7-5.2s0,2.7-0.2,3.7
		s-2,0.3-2,1.5s-1.2,2.4-4.6,2.7s-2.2-2-2.2-2.9s-1.2-0.5-3.4-0.8s0.9-7.3-0.3-7.3s-2.4,0.3-1.5,3s-2.9,2.2-4.4,2.4s0.8,4.2,1.2,5.9
		s-5.1,2.4-7.4,1.9s-1.5,0,0.2,3.6s-1.5,3.4-4.7,4.2s-2.5-4.4-2.9-6.4s-1.7-1.9-3-1.5s-3.7-1-4-4.1s-0.7-3-1-2s-1,3-2.2,1.5
		s-3.4-1.5-1.7,0.5s-2.2,5.1-0.7,3.6s-1.7-2.2-1.7-4.9s4-1.5,5.6-2.9s-1.5-8.6-1.2-10.1s2.7-1.7,3.2-2.7s-1.9-1.9-2.5-4.2
		s1-3.2,0.7-4.9s-3.5-1.2-2.7,1.2s2.4,3.6,0.3,4.1s-3.9,4.9-3.9,4.9c-0.7-2,1.4-2.9,1.9-5.4s-2.2-3.2-2.9-4.4s1.5-1,2.7-1.5
		s0.6,0.9,1.1-0.8s1.1,4.3,2.3,4s-1.3-4.3-0.6-5.3s0.7,1.2,2-0.8s-0.7-5.6-0.3-6.4s2.9,0.2,3.7-1.7s-0.9-2.9,0.2-5.2
		s2.2-1.5,4.2-2.9s-0.5-5.1-0.7-7.8s0.8-2.9,4.4-5.1s2.2-2.4,3.4-5.9s4.6-8.6,6.9-10.1s9.3-20.9,28-25.8
		c18.7-4.9,46.8,11.3,46.8,11.3c1.6-0.5,3.2-0.7,4.9-0.7c2,0.2,8.6,4.9,7.9,5.8s2.2-1,3.2,1s0.7,3.7-0.3,3.9s2.5,1.9,2.2,3.2
		c-0.1,0.6-0.4,1.2-0.8,1.7c0,0,1.5,0.9,1,2.2s-1.9,1.5-1.9,2.7s4,2.2,3.2,3.5c-0.8,1.3-1.9,1.7-1.9,3s4.4,2,4.7,4.2s-1,2.5-1.2,3.9
		s1.4,1.4,1,3.4s-1.9,1.9-2,3.4s2.9,2.2,2.7,4.7s-2.4,1.4-2.4,2.5s2.7,2.5,2.5,4.1c-0.2,1.6-1.4-0.5-1.4,1.7s-0.7,1.9,1.2,3
		s6.4,8.2,3.7,8.9s-3.5,1.2-3,2.7s-0.5,3.6-1,0.5s2.2-3,2-4.1s0.5-1.4-2-0.7s-3.4-7.2-3.4-4.5s0.7,2.4,0.7,4.2s0,7-1.2,9
		c-1.2,2-5.9-2-3.8-1.6c2.1,0.4,4.9-1,3.5,1.2c-1.4,2.2-1.7,2.5-3,2.4c-1.3-0.1,2.5-1.5,0.5-1.9s-7.7-7.7-6.7-9.7s7.9,8.3,6.7,8.5
		C577.4,224.2,576.7,224.7,576.5,225.5z"/>
	<path class="st3" d="M427.3,230.8c0,0,25.7,3,38.7,1s13.7-31.3,36.7-56.3s48.7-40.3,60.7-70.7s-31.7-60.7-55.3-48s-48,51.7-53,58.7
		s-5.3,11-5.3,11s-37.7,43.7-40.3,48.7s-3.7,8-4.7,18.7S404.7,222.8,427.3,230.8z"/>
	<path class="st5" d="M524.7,109.5c0,0-7,10.3-16.3,22.3s-12.7,12.7-22.7,24.7s-19,27.7-25.3,35"/>
	<path class="st0" d="M595,165.1c0,0-14-31.7-17-33s-8-3-10-5.7s-2.7-9.7-2.7-12.3s2.7-10.7,2.7-10.7c1-1.7,2.1-3.4,3.3-5
		c1-1,3.3-0.3,4.7-1s3.3-2.7,6-3s2,1.7,3.7,2.3s5,0.3,6.3,1s2.7,3.7,4.3,4s3,0,4.7,1.7c1.7,1.9,2.5,4.5,2.3,7c-0.3,1.7,0.3,4-1.7,8
		c0,0,22,36,23,42"/>
	<path class="st1" d="M523.5,303c11.7,6.3,18.7,3.7,23.3,0s23.7-6.7,25.3-7.3s8-4.3,8-4.3c-0.8-5.8,0.3-4.7,12.8-11.3
		s37.5-20,46.7-30s15.8-15.8,15.8-18.3l0.1-1.9c0-2.5-11.7-48.3-15.8-52.5s-7.5-6.7-7.5-11.7c0-3.3,0.3-6.7,0.8-10
		c0,0-12.5-2.5-19.2-1.7s-18.3,7.5-18.3,7.5c-1.9,11.1-1,22.6,2.5,33.3c5.8,17.5,11.7,24.2,7.5,26.7s-16.8,11.5-25.8,15.8
		c-7.5,3.6-7.5,7.1-12.5,6.3s-9.5-3-14.5,3c0,0-16.8-10.3-26-10"/>
</g>
<g id="Layer_3">
	<path class="st0" d="M760.3,718.8c0,0,1.3,13.7,3.7,18.3s2.7,12,1.3,16.7s-1.7,4-5,10s-4,8.3-7,12.3c-2.6,3.2-5.5,6.1-8.7,8.7
		l3,10.7l21-2.3l7.7-8.7c0,0-0.3-3.7,1.7-6s10.7-9,10.7-12.7s-0.7-13.7-0.7-13.7c-1.5-1.5-2.4-3.5-2.3-5.7c0-3.7,1.7-33.3,1.7-33.3
		l-27,4.7"/>
	<path class="st1" d="M742.7,810.5c6.4,2.9,18.3,1,23.3-4.3s4.7-3.7,6-8.3s5-15,8.3-17.3s12.3-8.3,12.3-14.3s-3-15-5.7-16.3
		s5,3.7-0.7,16s-5.7,15-11.3,18.7s-14.3,3.7-16,5c-2-0.8-4.2-1.3-6.3-1.3h-3.3c0,0-6-4.7-3.3-6.3s1.7-1.3,1.7-1.3s-5,2.3-5.3,4.7
		c0,1.6-0.8,3-2,4C739,790.5,734.7,806.8,742.7,810.5z"/>
	<path class="st0" d="M822,720.1c0,0-0.3,12.7-2.7,21.3s-3,5.3-4,9s0.7,8.3-0.7,11.3s-2.7,4.3-3.3,6.3s0,4.3-3,10
		c-1.5,3-3.3,5.8-5.3,8.3l5,15.3l23.3-3.3c0,0,4-16,4.7-22.7s-0.3-9,0-10.7s3.7-6,3.7-8.3s-2-8-0.7-11s8-20.3,6.7-24.3
		S822,720.1,822,720.1z"/>
	<path class="st1" d="M798.7,812.8c7.7,6.7,14,8,22.3,1.3s11.3-18.7,11.3-18.7s-1.7,3.7-12,2.3c0,0-1-0.3-4.7-3.3s-6-1.7-6-1.7
		s-6.7-5.3-5.3-8s5-8.3,5.7-11.3s2-7,4-8s0-1.7,0-1.7s-9.7,14-12,19s-7.7,13-9.3,16S793.3,808.1,798.7,812.8z"/>
	<path class="st2" d="M766.7,726.1c10,0.9,22-5.3,24-8.7c-0.6-2.9-0.7-5.8-0.3-8.7c0.7-4,3-27.3,2.7-34.3s-2-19.7-2-19.7
		c0.6-0.9,1-1.9,1-3c0-1.7-1.7-1.3-1.3-2.3s1.7-3.3,1.7-4.3s-0.7-1.7-0.7-2.7s2-4.3,2-4.3l0.3-3.3c0.4-3.5,1-7,2-10.3
		c1.3-4-0.3-19-0.3-20.3s2-6,2.3-11s-1.7-12.3-1.3-14.3s3.7-6,3.7-7.7s-1-9,0-12l2,13.7c0,0,2.3,8.7,3.7,8.7c-0.4,3.7-0.4,7.3,0,11
		c0.7,5,4,8,4.7,26s2,32,6.3,34.7c-0.6,0.5-1,1.2-1,2c0,1.3,1,0.3,1.3,2c0,0-1.7,10.7-1.7,15.7s2.3,31,2,38s-1.3,8.7-1.3,8.7
		s3.3,12,13.7,12.3s19.3-6.7,19.3-6.7c0.6-3.2,1.5-6.3,2.7-9.3c1.7-4-0.3-5-0.3-5s6.7-26.7,7.3-36c0.4-5.2,0.4-10.5,0-15.7
		c0,0,1.3-0.7,1-3s-3-1.3-2.3-3.3s2.7-5.7,2.3-7.7c-0.4-1.5-1.2-2.9-2.3-4v-22.7c0,0,1.3,1,2-5.3s3.3-27.3,2.3-31.7
		c0,0,2-4.3,2.7-5.7s0.3-8.3,2.3-14s7.3-38,7.3-49.7s0.3-25.3-10.3-35s-122.3-6-122.3-6l-12.7,10c0,0-4,31,1.3,49s9,34,10,45.3
		s6.3,22.3,6.3,22.3c0.6,6.1,0.8,12.2,0.7,18.3c-0.2,4.5,1.1,9,3.7,12.7c0,0,0.3,0.7,0,4.3s-2.7,4.3-2.3,6s0.7,6.7,0.7,6.7
		c-1,2.6-1.6,5.3-1.7,8c0.2,3,0.8,5.9,2,8.7c0,0-0.7,9.3,1,17s4.3,15.3,4.7,19.3s-0.7,10-1.3,14.3S756,725.1,766.7,726.1z"/>
	<path class="st0" d="M759,314l13-49.5l20.5-28.5c0,0,47,7.5,44,9s27,22,27,22l-3,35l-14,17.5L759,314z"/>
	<path class="st1" d="M767,313.8c0,0,5.7-19,5.7-27.7s7.3-20,8.3-22.3s-39.3,1.3-46.3,3s-12.7,7.3-17,15s-1.7,25-1.7,25l2,14
		L767,313.8z"/>
	<path class="st1" d="M699,355.8c0,0-4,6-9.3,8s-1.7,0.7-5.3-8.7l-3.7-9.3c-2.7,4.1-4.1,8.8-4,13.7c0,8.3,8,15.7,9.3,19.3
		s-0.7,10.3,5.3,15.7s17.7,8.3,18.7,15s4-23,4-23L699,355.8z"/>
	<path class="st1" d="M849.3,300.8c0,0-0.3-1,0.3-7s5.3-29.3,5.3-29.3s26-11,31.3,7.7c0,0,12-2.3,12,3.3s-3,6-2.7,9s6,12.3,6,12.3v4
		c0,0,3,11,2.3,12.7c0,0,1.3,5,2,8.7c0.4,2.1-0.1,4.3-1.3,6c0,0,5.3,11.3,7.3,17.7c1.2,4.1,1.8,8.4,1.7,12.7c0.9,1,1.5,2.1,2,3.3
		c1,2.3,1,10.7,1,10.7s2.3-0.3,3.3,3.7s-1.7,4.3-1.7,4.3s2.7,0.3,3.7,1.7c0.6,0.9,0.8,2,0.7,3c0,0,1.3,1.7,2.3,6.3s-0.3,7.3-0.3,7.3
		c-1,1.8-1.6,3.7-2,5.7c-0.3,2.7,0,6.7-2,10s-9,11-14,11.7s-12.3-2-12.3-2s6.7-3.7,8.3-4s7.7,2.3,9.7-2s5.7-15.7-4.3-21
		s-7.3-1-7.3-1l-8,0.3l-8.7-4.3l-2.3-5.3l-3,0.3L847,326.5L849.3,300.8z"/>
	<path class="st1" d="M884.3,423.5l12.3,32.7c0,0-13,10-21,9.7S884.3,423.5,884.3,423.5z"/>
	<path class="st0" d="M686,364c0,0,0.5-5-4.5-16.5s-4-18-2.5-23s-1.5-10.5,0-15.5s4-15.5,4-15.5l6.5-3.5l7.5-6l5-2.5l7,7.5l1,3
		l3,4.5v4l2,3.5v4l1.5,4l-1.5,3c0,0-1,1.5-3.5,1s-5,2-5,2l0.5,1.5l3,3l1.5,3.5l-4.5,28C707,354,691.5,365,686,364z"/>
	<path class="st1" d="M719,459.1c0,0-4.7,18.7-3,25.7s4.7,11.7,8,11.7s8.7-9.7,8.7-9.7L719,459.1z"/>
	<path class="st0" d="M885,424.5c0,0,4.7,1.3,8.3-0.7s6-4,9.3-3.7s10,1.3,10-2.7s9.3-17.7-10.3-22h-1.7c0,0-0.3-4.3-3.7-4.3
		s-17.3,0.7-17.3,0.7L885,424.5z"/>
	<path class="st3" d="M851.3,303.1l12-42.7c0,0,14,1,18.3,3s-10.3,47-16,50.7S851.3,303.1,851.3,303.1z"/>
	<path class="st3" d="M726.3,326.8c0,0,14-57.3,25.3-62.7l17.3-2.7c0,0-19,43-17.7,60S726.3,326.8,726.3,326.8z"/>
	<path class="st3" d="M780.7,308.5c0,0,48-7.7,61-9s26,3.3,29.3,13.7s5.7,20.7,6.3,30s0,33,0.7,36.3s20.3,66-2,97s-31.3,34-68,39.7
		s-65.3-2.7-81-30.3s-13.7-49.7-19-75.7s-13.3-45-11.3-62s8-25.7,31.3-30.7S780.7,308.5,780.7,308.5z"/>
	<path class="st0" d="M709,293c-3,0-15.5,3-15.5,3l8-5L709,293z"/>
	<line class="st5" x1="703" y1="300.5" x2="711.5" y2="299.5"/>
	<line class="st5" x1="706" y1="308.5" x2="715" y2="305.5"/>
	<path class="st4" d="M851.5,146c31,3,55.5,41.5,56,47s-1,8-0.5,10.5s3-1,3.5,4s-5.5,5.5-4,6.5s5,0.5,5,5.5s-6.5,6-5.5,8s5,5,3.5,7
		s-5.5,3-5.5,3s3.5-1.5,2-4s-4-3-3.5-6s-5.5,3.5-4,6s4,2,3.5,6s-6,3-5,7s6,10,1.5,12.5s0,1.5-1.5-4c-0.2-0.9-0.5-1.7-0.9-2.5
		c-1.5-3.3-3.3-4.3-2.1-8c1.5-4.5,5.5-5,1.5-8s-2.5,0-3,3.5s-1.5,4.5,0,8s-1.5,5-1.5,8s2.5,1.5,2.5,4.5s-2.5,4.5-1,7.5
		s5.5-2,5.5,4.5s-1,13-4,13s-6.5-4.5-6.5-4.5s5-6,2-8.5s-4,6.5-4,6.5s2.5,4.5-4.5,4.5s-8-1.5-8-1.5s3,2.5,1-4.5s-2.5-2-3.5-6
		s-5.5-5-1.5-6.5s0.5-5.5,0.5-5.5s-5.5,4-4.5,9.5s2.5,6-1.5,7c-3.5,0.7-7,1-10.5,1l-4.5-0.5h-2l0.5-7l7.5-61l-7.5-11l-8-38.5
		L851.5,146z"/>
	<path class="st0" d="M814.5,245.5c0,0,8.5,14,10,17.5s12,13.5,19.5,12s9.5-9,11-10.5s17-15,20-22s1.5-8.5,3.5-12
		c1.4-2.2,3.3-4.1,5.5-5.5c0,0,5.5-19.5,3.5-22.5S878,200,878,200s-6.5-5-10.5-4s-8.5,3.5-11,3.5s-22-0.5-23.5-2S810,226,810,226
		L814.5,245.5z"/>
	<path class="st4" d="M854.5,196.5c0,0-6,7.5-6,10.5s1,4.5-1,7s-5,4.5-3.5,5.5s4,1.5,2.5,3.5s-2,0.5-2,4.5s2.5,4.5,0.5,5.5
		s-3.5-2-3.5,1.5s5,4,2,4.5s-4-1.5-5.5,1.5s-3,1-4,4s3.5,5.5-1,6s-5-3-4.5,0.5s3.5,5,0.5,5s-3.5-2-3.5-2l1.5-1.5c0,0-2.5-7,0.5-7
		c1.6-0.1,3.2,0.5,4.5,1.5l0.5-7l2-1.5l1.5-4.5l1.5-15l1.5-0.5c1.8-4.5,3.1-9.2,4-14c1-6.5-6,0.5-7.5,6s-4.5,6-4.5,6s-1-0.5-3.5,5.5
		s-7,14.5-7.5,17.5s5,0,2.5,3.5s0.5-3-2.5,3.5s-3.5,5-6,6.5s-0.5-0.5-2,6.5s-3.5,2-4.5,7.5s5,6,0.5,8c-2.5,1.2-5.2,1.7-8,1.5
		c0,0-3.5-2.5,0.5-2.5s2-1.5,0.5-2s-2-4-2-4l2-5.5c0,0-1.5-3-5.5,5s-3,7.5-6,7.5s-4.5-0.5-4.5,2s2.5,1,0,7s-0.5,12-3.5,9
		s-2.5-1-3-9.5s1-14-1-16.5s-3.5-2.5-6-2.5s-8.5-0.5-9-3s-3-0.5-4-1.5s-2.5-2-0.5-4.5s0.5-2,4-2s2-2,2.5-5s-1-2.5-3.5-3.5
		c-2.9-1-4.4-4.1-3.5-7c1-3.5,1.5-0.5,4-3.5s2.5-5,3-9.5s-1,0-2-5s4-5.5,4.5-7.5s-2.5-10-1.5-13.5s4,0,6-3.5s3-3,3.5-8.5
		s2.5,0,5.5-7s9-8,9.5-11.5s3.5-5.5,8.5-8.5s7.5-7.5,14.5-9.5s12-2.5,15.5-3.5s9.5,0,15.5-1s12.5,0.5,13.5,1.5L871,161l-5,27.5
		L854.5,196.5z"/>
	<path class="st6" d="M839.3,253.5c-1,0,6.3,3,7.3,3s6,1,7,1.7s6,0.3,7-0.7s-1.3-2.7-1.3-2.7c-0.9,0.2-1.8,0.3-2.7,0.3
		c-1.3,0-3.7-2-3.7-2c-2.2,0.6-4.4,1.1-6.7,1.3C844,254.2,841.6,253.9,839.3,253.5z"/>
	<path class="st6" d="M848.5,241c0.8-1.5-3.3,5.3,0.8,5.8s4-0.8,5.5-0.5s-0.5,1.5,3,2.5s6.8,1.3,7.5-1.5s-2.3-15,1.3-18.3
		s11-5.5,13-5.8"/>
	<path class="st6" d="M840,254c0,0,7.3,8.8,12.3,9s6.8-2.8,5-4.8"/>
	<path class="st5" d="M855,226c0,0-3.5,3.3-6.5,3s-5.5-3.3-5.5-3.3"/>
	<path class="st7" d="M860.5,220c0,0-5.8-5.8-11.8-7.3s3.8-1,3.8-1L860.5,220z"/>
	<polygon class="st7" points="874,224.5 874.8,224.2 885.3,220.7 885.8,222.2 	"/>
	<path class="st7" d="M870.5,232.2c0,0,6.3,4.5,7,3"/>
	<g id="Layer_3_Image" transform="translate(673.58 393.13) rotate(170.37) scale(0.06)">
		
			<image style="overflow:visible;enable-background:new    ;" width="799" height="856" id="image" xlink:href="418EEEC7.png"  transform="matrix(-5.915403e-02 1.003720e-02 -1.003720e-02 -5.915403e-02 -1165.637 108.7494)">
		</image>
	</g>
</g>
<g id="Layer_2">
	<path class="st1" d="M317.3,724c0,0,12.3-6.2,9.5-13.5c-2.8-7.3-10.5-1.5-12.2-1.5"/>
	<path class="st0" d="M256.8,689.5c0,0,4.8,19,4.5,22.7c-0.3,3.7-1.7,9-1.5,10c0.2,1,13.5,7.2,13.5,7.2s11,2.3,21-2.8v-13.2
		l-10.5-11.8c0,0-4.3-12.8-2.8-22.5S256.8,689.5,256.8,689.5z"/>
	<path class="st1" d="M259.3,740.8c10.3,4.3,16.2-2.7,17.3-3.7s12.2-7.3,17.5-7.8l0.2-2.8c0,0-13.7,5-21,2.8
		c-4.9-1.6-9.4-4-13.5-7.2l-0.2-1.7c-1.1,0-2,0.7-2.3,1.7c-0.5,1.7-1.8,3-1.7,4.5s-2.2,3.2-1.2,7.3S255.3,739.1,259.3,740.8z"/>
	<path class="st0" d="M294.3,712c0,0,0.3,24.8-0.8,31s21.7,11.2,21.7,11.2l14.5-3.3l8.5-2.3l10.8-13c0,0-5-11.8-6.2-11.5
		c-1.2,0.3-7-0.7-7-0.7s-5,0.5-7.5,1s-6.5,1-8.7,0.5c-2.2-0.5-1.8-2.2-1.3-6.5s2.3-11.8,2.3-11.8l-23.7,1.2L294.3,712z"/>
	<path class="st1" d="M293.2,739c-1,0.9-1.7,2.1-2,3.3c-0.3,1.8-0.3,1-0.3,1s-3.2,3.3-3.2,9.7s5.7,11.5,21.8,5.8s28.8-10.2,32-10.7
		c3.2-0.5,21-8,16.7-22.8c0,0-0.3-8.7-14.3-5s-12.5,2.8-12.5,2.8s7,1.3,7.8,2.3c0.8,1,5.3,6.5,5.8,6.8s2.7,8.2-9.3,15.8
		c0,0-7.8,2.8-14.7,3.2s-11.3,0.3-11.3,0.3s-1.2-1.2-5.3-3.2s-6.2-2.8-8.3-4.8S293,741.1,293.2,739z"/>
	<path class="st2" d="M354.2,464.5l-77.3-21l-33.3,9.3l-8,17.7c0,0,4,19,5,23.3s1.7,8,1.7,8s5,2,5.7,7.3s-2,7-1,8.3s1.3,6.3,1.3,8
		s1,19.7,2.7,24s3,5.3,2.7,9s-0.3,9,0.3,10s-1.3,4-1.3,4l1.3,9.7l-0.7,2c0,0,1,0.3,0,2.3s-1.3,1.7-0.7,3s2.7,2,1,3
		c-0.9,0.5-1.6,1.3-2,2.3c0,0,1.7,1,0,3.7s-2,0-1.7,2.7c0.2,1.7-0.3,3.3-1.3,4.7l0.7,2c0,0,2,1.3,0.3,2.7s-2-1.3-2,2.7
		s1.3,4.3,0,7.7s-5.3,24-4.3,38.3s-1,20.3-1,24.3s-0.3,3-0.3,3c5.8,4.2,12.9,6.2,20,5.7c11.7-1,20.7-8.7,20.7-8.7s-1.7-6-1-17
		c0.7-11,0.3-36.7,0.3-37.7s2.7-9.7,3-11.3c0.2-2.3,0.2-4.7,0-7c0,0,1.3,1,2.7-7.7s1.3-19.7,4-25c2.7-5.3,25.3-38.3,25.3-38.3
		l34.7-52.7l3.7-14l1.7-6L354.2,464.5z"/>
	<path class="st2" d="M357.8,468.7c0,0-4.4,5.5-3.8,7.1c0.6,1.9,0.8,3.8,0.6,5.8c-0.3,0.9,1,3.4,0.3,6.4c-0.7,3-1.5,5.1-1.6,5.6
		s0.3,3.5-0.1,4.1c-0.4,0.6,0,2.8,0,2.8c0.1,1,0.1,1.9-0.3,2.9c-0.3,0.8-0.4,1.6-0.4,2.4l-0.1,3.4l-0.6,0.8l-0.3,3.5l-1.1,4
		c0,0-3.3,32.1-3.4,35.3c-0.1,3.2-0.5,11.1-2,16.1s-2.9,6.5-3.1,8.3s-2.5,19-4.9,21.5s-4.4,3.3-5.4,4.3c-0.6,0.6-1,1.3-1.1,2.1
		c0,0,4,3,3.1,7.8s-2.8,7.1-2.5,7.9c0.3,0.8,3.4,2.3,2.6,5.8s-2.8,11.6-2.8,11.6s1.6,1.9,0.9,6.5s-1.9,11.3-2,13.4
		s-6.4,35.6-5.6,37.4s1.9,7.1-0.8,10.9c-2.7,3.8-7.9,7.6-18.5,8.3s-20.4,0.4-23.6-6.5c0,0,2-7.5,2.1-8.6s1.5-27.6,2.5-37.3
		s2-16,2.1-18.3s1.3-10.8,1.8-11.4s0.9-10.6,0.4-12.5s-1-1.9-0.5-2.9s1.5-1.4,0.9-2.1s-0.9,0.4-0.5-1.4c0.2-1.1,0.4-2.2,0.4-3.3
		c0,0,0.4,0.3,0.1-4s1.6-8.4,0-12.8s-2.3-1.4-1.8-8.3s0.3-25.6,0.3-27.3s-1-24.6-1.5-26.8c-0.4-1.5-0.3-3.1,0.1-4.6
		c0.1-1.4,0-2.7-0.5-4c-0.4-0.5,0.3-4.6,0.3-4.6l-0.4-2.5l0.1-2"/>
	<path class="st1" d="M333.6,295.6c0,0,3.3,5.8,3.5,7.9c0.2,2.1,6,7.5,8.3,12.9c2.3,5.4,3.3,10,2,10.5c-1.3,0.5-1.3-1.4-1.3-1.4
		s2.3,7.4,2.5,11.1c0.2,3.7,0,10.8,0,10.8c0.2,0.8,0.3,1.6,0.4,2.4c0,0.5-0.2,1-0.6,1.3c0.2,1.2,0.4,2.5,0.4,3.8
		c0,1.8,1.3,1.6,1.3,1.6s1.3-0.1,1,2.1c-0.3,2.2,1.1,9.5,1.1,9.5l6.9,27.4c0,0,7.8,28.4,8.8,31.6s1.9,10.3,2.5,12.9
		s6.3,22.1,2.4,27.6s-14.8,5.9-17.3,5.9s-9.3-1.6-12.8-0.9s-12.6,2.3-15.4,0.9s-7.3-10.3-8.5-11.1c-1.2-0.8-12-0.6-14.9-1.8
		c-0.4-0.1-8.1,4.4-10.4,0L250,420.8l-34.8-92.6"/>
	<path class="st0" d="M354.7,327c0,0,1.7-3.7,1.5-5.5c-0.2-1.8-1.2-4.8,2.5-4c3.7,0.8,4.7,7.3,5,8.5c0,0,2,2.7,3,2.7s3.2-0.2,4,0.5
		c0.8,0.7,1.5,2.3,2.5,3s2,0.5,2.7,0.8c1.9,0.9,3.2,5.5,3,5.3c-2.5-1.5,4.3,1.6,1.5,5.5c-1.2,1.7-1.8,5.7-2.5,8.3
		c-0.6,2.4-1.7,4.7-3.2,6.7c-1.1,1.2-1.9,2.6-2.3,4.2c-0.2,1-0.6,1.9-1.2,2.8c-0.1,1-0.3,2-0.8,2.8c-0.7,0.8-1.8,2.2-3.5,4.3
		c-1.7,2.1-16.3-8.5-16.3-8.5l-1.8-1"/>
	<path class="st3" d="M283.8,401.3c0,0,17.4-3.6,24.9-11s7.7,0.1,7.7,0.1l6,10.3l-4,16.7l-5.8-8.9l-3.3-0.3l-4.3,5.6
		c0,0-11.6,8.9-18.4,9.6"/>
	<path class="st1" d="M213.8,291.9c0,0,5.1-6.9,8.4-9.3c2.4-1.6,5-2.8,7.8-3.5l23.4-33.5l28.5-0.9l30.2,19.5l11.3,2.9l-0.2,2.7
		c0,0,2.8,0.2,3.8,1.6s0.5,1.4,0.5,1.4c1.4,0.5,2.6,1.3,3.6,2.4c0.8,1.3,1.5,2.6,2.1,4c0,0,3.8,1.9,3.6,8.7
		c-0.2,4.8-0.7,9.5-1.6,14.3c0,0,0.6,2.5,0.4,8.8s0.3,10.2,0.6,10.8c0.9,3.4,1.6,6.9,2.1,10.4c0.1,1.4-0.2,2.8-0.8,4.1
		c0,0,0.8,0.8,0.7,4.5s-0.5,4.3-0.3,5.3c0.2,1,1.2,2.3,1.1,4.1c-0.1,1.8-0.3,10.7-0.3,11.3s-1.8,11.5-1.8,11.5l1.8-1.2
		c0.7-0.8,1.3-1.6,1.8-2.5l1.8-0.9c0,0,1.7-0.9,1.8-1.6s1.4-1.4,2-1.7c0.8-0.7,1.5-1.5,2.1-2.3c0,0,0.6-0.8,0.8-0.8
		c1.5-1.1,3.3-1.6,5.2-1.5c4.2,0.2,8,2.5,10.1,6.1c2.3,4.1,5,9.4,4,14.3s-1.8,8-3.3,8.3c0,0-0.6,2.8-1.1,3.3s-0.8,0.5-0.8,0.5
		s-0.9,4.7-1.6,5.8c-0.5,1.1-0.8,2.2-0.8,3.4c0,0.4-1.7,1.4-1.8,2.4s-0.5,2.8-1.3,3.7c-0.8,0.9-15.1,7.2-17,8.5s-9.2,6.5-14.4,8.2
		c-5.2,1.7-9.7,3.9-13.5-0.8c-3.8-4.7-4.9-1.9-8.4-7.6s-3.9-9-3.4-12c0,0,0.3-0.6-0.3-3.1c-0.3-1-0.5-2.1-0.5-3.2
		c0,0-3.6-7.1-3.4-11.2c0.1-2.7,0.6-5.3,1.3-7.9c0,0-1-4.4-2-7.3c-1.6-3.5-1.3-7.6,0.7-10.8c0,0,0.5,0.5-0.2-1.9
		c-0.7-2.4,0-2.7-0.6-4.7s-3-10-2.3-12.7c0.7-2.7,2.3-7.8,2.3-7.8"/>
	<path class="st3" d="M356.2,325.6c0.1-1.4,0-2.9-0.2-4.3c-0.4-1.2-0.7-2.4-0.8-3.7c-0.2-1.5-1.5-6-2.3-6.7
		c-0.8-0.7-4-9.5-12.8-26.3c-8.8-16.8-10.3-20.3-21.8-21.5s-22.2-2.7-33.2,5.8s-20.2,19.2-22.7,20.2c-2.2,1.1-4.3,2.4-6.2,4
		l-4.5-4.5c-1.3-1.3-4-3.7-3.8-7.8s1.8-14.8-1.2-15.7s-13.8-1.7-17.7,3s-4.3,8.5-4,8.8s-0.7,1.3-0.8,1.8s1,2.7-0.2,2.8
		c-0.8,0.1-0.4,1.4,0.3,3.1c0.4,0.9,0.9,0.9,0.3,1.7c-0.5,0.8,3.3,3.2,2.1,3.6c-1.7,0.5-5.4,0-10.8,0.3c0,0-23.7,3.3-32.5,16.8
		c-8.8,13.5-10.8,20.4-10.8,37.7c-0.8,1.4-1.3,2.9-1.5,4.5c0,1.8,2.8,18.3,3.3,23.5s0.5,17.5,3.8,19.8c0,0,0.2,13.3-0.3,32
		c-0.5,18.7,6.2,27.5,19.5,33.3s42.7,19,44.5,19.7s12.7,2,21.7,0.7s10.8-4.5,10.8-4.5s16.2,0.3,19.7-12.3s2.5-18.2,1-24.8
		c-1.1-4.4-3.1-8.4-5.8-12c0,0-4.5-35.2-4.8-36.2c0,0,2.3-0.3,3.7-11.2s3.7-22-0.3-26.5c0,0,2-8.5-2.5-21.7s-6.7-17.3-9.3-19.3
		c-0.2-1.3-0.6-2.5-1.2-3.7c0.6-1.3,2.1-2.1,3.5-1.8c0,0,2.3-2.5,4.3-5s25-30.3,36.3-31c3.7-0.2,4.2,1.3,4.2,1.3l10.3,27.3
		c1.5,1.6,2.7,3.4,3.7,5.3c1.2,2.7,3.5,4.7,5.8,8c2.3,3.3,7,5.3,8.3,7.8c1.3,2.5,2.3,10.2,2.3,10.2L356.2,325.6z"/>
	<path class="st0" d="M351.3,360.8c-0.2,0.1-2-4.2-1.5-3.3c1.3,2.3-1.3-3.5-1.5-12c-0.2-8.5-0.2-8.3,0.2-11.5s1.5-6,1.3-8.8
		c-0.2-2.8-1-6.7,0.8-7c1.8-0.3,5.2,5.5,5.2,7.2s0.5,5-0.8,8.7c0,0-2.7,2.3-2.5,3.7"/>
	<path class="st5" d="M263.5,321.3c0,0,10.8,39.3,10.3,52.3s0,41,1.7,50.7c1.7,9.7,2.2,12.7,2.2,12.7"/>
	<g id="Layer_3_Image-2" transform="matrix(0.05, 0.01, 0, 0.04, 47.85, 324.19)">
		
			<image style="overflow:visible;enable-background:new    ;" width="799" height="856" id="image_2_" xlink:href="418EEEC5.png"  transform="matrix(5.000000e-02 9.999999e-03 0 4.000000e-02 2361.8501 -212.3517)">
		</image>
	</g>
	<path class="st4" d="M338,235c0.7,0.7,1.7,2.2,0.8,3s-0.5,5.5,0.5,6s1.7,3.2,0.3,5.7s-3.2,1-2.5,1.8c0.7,0.8-0.7,2-0.5,3.7
		c0.2,1.7,0.7,1.8,0.8,3c0.2,1.2-2.2,1.5-2.2,2.3s2.3,0.5,2.5,1.7c0.2,1.2-3,1.8-3.7,1.5c-0.7-0.3,0,2.3,0,1.2s-1.7-1-1.7-1l1.2-0.3
		c1.2-0.3,2.5-0.2,2.5-1.2s-2.8-0.8-3.5-1.3c-0.7-0.5-0.8-0.8,0.5-1.8c1.3-1,1.3,0,1.7-0.7c0.3-0.7-1.2-0.5-2.5-0.7
		c-1.3-0.2-0.5-0.3-0.7-2.3c-0.2-2-0.5-1.7,1.2-2.5c1.7-0.8,0.2-1.2,0.2-1.2c-0.7-1.1-1-2.5-0.8-3.8c0.5-1.8,0.3-2.8-1.3-3.8
		s-1.3,1-1.3,3.8s0.8-0.5,1.3,1.3s-0.5,2.5,0.2,4.2c0.7,1.7-2,2.3-3.7,3c-1.7,0.7-0.7-1.7-1-2.8c-0.3-1.1-2,1-1.8,2.5
		c0.2,1.5-1,2.5-0.3,3.3c0.7,0.8,0.2-0.5,1.5,0.8c1.3,1.3,0.7,3.2-0.8,4.5s-1.8-0.5-1.8-1.5s0.8-0.8-1.5-0.5c-2.3,0.3-3.2-3-4-3.7
		c-0.8-0.7-3.5-2.8-2.8,0.3c0.6,2.7,1.7-0.2,1.8,2.3s-4.3-0.5-6.3-2.7s-2,1.3-1.3,3c0.7,1.7-5.7,2-6.7,2.3s-2.3-2.7-3.7-3.3
		s-8.8-0.7-7,1.7c1.8,2.4,3,0.8-1.7,5.2c-4.7,4.4-3.7,0.8-6-3c-2.3-3.8-4-1.8-5.8-2.8c-1.8-1-1.7-5.8-2.7-5.2s0,2.7-0.2,3.7
		c-0.2,1-2,0.3-2,1.5s-1.2,2.3-4.5,2.7c-3.3,0.4-2.2-2-2.2-2.8s-1.2-0.5-3.3-0.8c-2.2-0.3,0.8-7.2-0.3-7.2s-2.3,0.3-1.5,3
		c0.8,2.7-2.8,2.2-4.3,2.3c-1.5,0.1,0.8,4.2,1.2,5.8s-5,2.3-7.3,1.8s-1.5,0,0.2,3.5s-1.5,3.3-4.7,4.2s-2.5-4.3-2.8-6.3
		s-1.7-1.8-3-1.5s-3.7-1-4-4s-0.7-3-1-2s-1,3-2.2,1.5s-3.3-1.5-1.7,0.5s-2.2,5-0.7,3.5s-1.7-2.2-1.7-4.8s4-1.5,5.5-2.8
		s-1.5-8.5-1.2-10s2.7-1.7,3.2-2.7s-1.8-1.8-2.5-4.2s1-3.2,0.7-4.8s-3.5-1.2-2.7,1.2s2.3,3.5,0.3,4s-3.8,4.8-3.8,4.8
		c-0.7-2,1.3-2.8,1.8-5.3s-2.2-3.2-2.8-4.3s1.5-1,2.7-1.5s-2.3-0.8-1.8-2.5s0.8-0.2,2-0.5s-1.3-2.3-0.7-3.3s0.7,1.2,2-0.8
		s-0.7-5.5-0.3-6.3s2.8,0.2,3.7-1.7s-0.8-2.8,0.2-5.2s2.2-1.5,4.2-2.8s-0.5-5-0.7-7.7s0.8-2.8,4.3-5s2.2-2.3,3.3-5.8s4.5-8.5,6.8-10
		s9.2-20.7,27.7-25.5s46.2,11.2,46.2,11.2c1.6-0.5,3.2-0.7,4.8-0.7c2,0.2,7.8,5.8,7.2,6.7s2.2-1,3.2,1s0.7,3.7-0.3,3.8
		s2.5,1.8,2.2,3.2c-0.1,0.6-0.4,1.2-0.8,1.7c0,0,1.5,0.8,1,2.2s-1.8,1.5-1.8,2.7s2.7,1.2,1.8,2.5s-1.8,1.7-1.8,3s2.3,1.7,2.7,3.8
		s-1,2.5-1.2,3.8c-0.2,1.3,1.3,1.3,1,3.3c-0.3,2-1.8,1.8-2,3.3c-0.2,1.5,2.8,2.2,2.7,4.7s-2.3,1.3-2.3,2.5s2.7,2.5,2.5,4
		c-0.2,1.5-1.3-0.5-1.3,1.7s-0.7,1.8,1.2,3s5.3,2.2,2.7,2.8s-3.5,1.2-3,2.7s-0.5,3.5-1,0.5s2.2-3,2-4c-0.2-1,0.5-1.3-2-0.7
		s-2.3-1.2-2.3,1.5s0.7,2.3,0.7,4.2s0.7,0-0.5,2c-1.2,2-2.5,2.3-0.5,2.7s4.8-1,3.5,1.2c-1.3,2.2-1.7,2.5-3,2.3
		c-1.3-0.2,2.5-1.5,0.5-1.8s-4.3-0.3-3.3-2.3s1.2-3.3,0-3.2C338.9,233.9,338.3,234.3,338,235z"/>
</g>
</svg>
