<?xml version="1.0" encoding="utf-8"?>
<!-- Generator: Adobe Illustrator 21.1.0, SVG Export Plug-In . SVG Version: 6.00 Build 0)  -->
<svg version="1.1" id="Layer_4" xmlns="http://www.w3.org/2000/svg" xmlns:xlink="http://www.w3.org/1999/xlink" x="0px" y="0px"
	 viewBox="0 0 480 480" style="enable-background:new 0 0 480 480;" xml:space="preserve">
<style type="text/css">
	.st0{fill:#FFFFFF;stroke:#000000;stroke-miterlimit:10;}
	.st1{fill:#464646;}
	.st2{fill:#303030;}
</style>
<title>Artboard 2</title>
<rect class="st0" width="480" height="480"/>
<path class="st1" d="M266.2,251.2c-8-9.2-28.1-33.4-34.3-39.9h-0.6c-1.2,3.5-1.5,10.3-1.5,19.2v64.4c0,13.9,0.3,52.3,5.3,61.1
	c1.8,3.3,7.7,5,15.1,5.6l9.1,0.9c0.8,1.1,1.2,2.4,1.1,3.8h69c10.5,0,20.6-3.6,28.7-10.2c-5.6-6.5-13.1-15.2-23.5-27L266.2,251.2z"/>
<path class="st1" d="M329.6,82.8H150.4c-25.5,0-46.2,21.1-46.2,47.2v189.1c-0.1,15,7,29.2,19.1,38.2l0.3-0.1
	c2.5-0.8,4.8-2.3,6.3-2.5s12.9,0.4,14.3-1.6c1.4-2,0.8-17.6,2.9-20.6c2.1-3.1,12.8-4.5,13.5-5.8s1-2.2,2.5-2.1s1.8,8.1,0.4,9.1
	c-1.4,1.1-10.3,0.6-11.4,2.5s-2.2,14.9,0,16s3.8-0.3,9.4-0.4c5.6-0.1,7.4-0.4,8,1.8c0.6,2.2,0.8,3.4-1.9,3.3c-2.3-0.2-4.7,0-6.9,0.7
	c-1.3,0.3-2.6,0.8-3.8,1.5c-2.3,1-3.1,0.1-5,1.6c-1.9,1.5-3,4.1-5.9,3.2s1.6-2.4-2.3-3.4s-7.1,0.5-9.8,1.5c-0.5,0.2-1.1,0.4-1.7,0.4
	c5.8,2.6,12,3.9,18.4,3.9H192c-0.2-1.4,0.2-2.8,1.2-3.8l8-0.9c6.8-0.9,11.5-2.7,13-5.9c4.1-10.6,3.8-46.7,3.8-60.9v-85.4
	c0-8.3-0.3-14.5-6.5-21.3c-4.1-4.1-11.2-6.2-18.3-7.1l-5-0.6c-1.8-1.8-1.8-6.2,0.6-7.4c12.4,0.9,28.1,0.9,33.4,0.9
	c4.5,0,9.1-0.3,13.6-0.9c5.9,15.1,40.8,54.1,50.5,65l28.6,32.2c20.4,22.8,34.9,39.3,48.7,53.5h0.6c1.2-1.5,1.2-6.2,1.2-12.4v-63.2
	c0-13.9-0.3-52.3-5.9-61.1c-1.8-2.7-6.5-4.4-18.3-5.9l-5-0.6c-2.1-1.8-1.8-6.5,0.6-7.4c13.6,0.6,23.6,0.9,34.9,0.9h4.4v-44
	C375.7,103.9,355.1,82.8,329.6,82.8z M128.9,220.4c0.5-2.4,1.5-13.1,1.7-17.8c0.2-4.7,0.4-20.9,2.5-23.1c2.1-2.2,6-5.2,5.5,2.4
	s-2.6,13.3-2.2,20.6c0.4,7.3,0.2,16.7-1.1,21.1s-2.7,6.4-5.3,6.3C125.5,229.9,128.4,222.8,128.9,220.4z M111.1,248.2
	c-1.5-2.9-3.9-5,1.1-6.2s15-3.8,20.2-5.9s15.8-5.5,20.9-5.8c5.1-0.3,6.7,0,5.9,3.1s-3.4,3.5-11.7,4.6s-14,5.1-18,5.9
	s-9.7,2.4-11.3,3.9C116.6,249.3,112.4,250.7,111.1,248.2z M153,315.4c-3.6,0.4-2.7-6.1-2-8.3s3.8-7.2,3.8-14.8s-0.4-8.3-1.4-11.2
	c-0.7-1.8-2-3.3-3.7-4.1c0,0-10.5,7.3-17.2,7.5c-6.7,0.3-15.2,0.2-16.8-4.7c-1.6-4.9,1.8-8.2,8-12.7s10.2-6.8,13.1-6.7
	c3.3,0.3,6.3,1.7,8.8,3.8c1.3,1.2,2.8,2.3,4.4,3.2c0,0,5-2.1,6.7-1.4c1.7,0.7-2,6.6-2,6.6s4.9,6.6,4.8,19.1
	C159.3,304.2,159.3,314.7,153,315.4z M155.5,254.6c-2.5,0.6-4.3,0.8-5.8-0.8c-1.9-2-0.1-4.2,2-5.7s4,0.3,5.6,0.6
	c1.5,0.3,2.6,1,2.6,2.3C159.8,252.3,158,254,155.5,254.6L155.5,254.6z M158.3,189.9c-0.9,6,3.5,10.8-1.4,15.1
	c-4.8,4.3-5.9,4.3-6.7-0.2c-0.9-5.4-1.8-7.9,1.1-13.8s3.9-9.9,2.5-14.9s3.5-11.3,6.1-2.5C162.6,182.4,159.2,183.9,158.3,189.9
	L158.3,189.9z"/>
<path class="st1" d="M126.1,276.9c-1.9-3.3,2.9-6.4,6-8.5c3.1-2.1,4.8-3.9,7.4-2.5s7.2,4,6.5,5.8s-1.9,4-8.6,5.3
	C130.6,278.3,127.1,278.7,126.1,276.9z"/>
<path class="st2" d="M127.3,55.8c-0.2-5.8-1.9-7.1-4.5-7.1c-3.1,0-5.6,2.8-5.6,10.5s2.4,10.5,5.6,10.5c3.5,0,4.3-3.4,4.5-6.9h7
	c0,7.3-4.2,13.1-12,13.1c-7.3,0-12-5.5-12-16.8s4.8-16.8,12-16.8c8,0,12.1,5.9,12,13.4h-7V55.8z"/>
<path class="st2" d="M149.7,75.4V73h-0.1c-0.8,1.9-2.7,3.2-4.8,3c-4.6,0-8-4.1-8-13.3c0-8.6,2.8-13.3,8-13.3c2,0,4.1,0.8,4.8,3.1
	h0.1v-2.6h5.5v25.5H149.7z M149.1,59.7c0-3-1.2-4.3-3.2-4.3c-1.8,0-3.2,1.6-3.2,7.3s1.4,7.3,3.2,7.3c2.1,0,3.2-1.3,3.2-4.3V59.7z"/>
<path class="st2" d="M163.4,67.2c0,1.8,1.5,3.3,3.3,3.2h0.1c1.2,0.1,2.3-0.8,2.4-2.1c0-0.2,0-0.3,0-0.5c0-4.3-11.5-0.9-11.5-11.1
	c0-4.3,3-7.4,8.7-7.4c5.7,0,8.2,3.1,8.5,8.1h-6c-0.1-1.9-0.8-2.9-2.7-2.9c-1-0.1-2,0.6-2.1,1.7c0,0.1,0,0.2,0,0.3
	c0,4.4,11.5,0.6,11.5,11c0,4.8-3.8,8.3-9,8.3c-4.9,0-8.7-2.7-9.3-8.7L163.4,67.2z"/>
<path class="st2" d="M191.1,75.4V73H191c-0.8,1.9-2.7,3.2-4.8,3c-4.6,0-8-4.1-8-13.3c0-8.6,2.8-13.3,8-13.3c2,0,4.1,0.8,4.8,3.1h0.1
	v-2.6h5.5v25.5H191.1z M190.5,59.7c0-3-1.2-4.3-3.2-4.3c-1.8,0-3.2,1.6-3.2,7.3s1.4,7.3,3.2,7.3c2.1,0,3.2-1.3,3.2-4.3V59.7z"/>
<path class="st2" d="M200.2,42.9h10c6.3,0,9.1,3.5,9.1,8.2c0,3.9-2.1,6.1-5.5,6.5v0.1c4.6,0.7,6.8,3.6,6.8,8.2
	c0,5.1-3.3,9.5-9.5,9.5h-11L200.2,42.9z M207,55.5h1.6c2.6,0,3.8-1.2,3.8-3.3s-1.3-3.2-3.8-3.2H207V55.5z M207,69.4h2.6
	c2.9,0,4.2-1.6,4.1-3.8c0.1-2.2-1.3-4-4.1-4H207V69.4z"/>
<path class="st2" d="M223.7,47.9v-5h6v5H223.7z M223.7,75.4V49.9h6v25.5H223.7z"/>
<path class="st2" d="M232.8,75.4V42.9h6v9.4h0.1c0.5-1.9,2.4-3.1,4.3-3c5.2,0,8,4.7,8,13.3c0,9.1-3.4,13.3-8,13.3
	c-2.1,0.2-4.1-1-4.8-3h-0.2v2.5H232.8z M238.8,65c0,3.3,1.3,4.9,3.2,4.9c2.3,0,3.2-2.3,3.2-7.3s-0.9-7.3-3.2-7.3
	c-2,0-3.2,1.6-3.2,4.9V65z"/>
<path class="st2" d="M254.1,42.9h6v32.5h-6V42.9z"/>
<path class="st2" d="M262.9,47.9v-5h6v5H262.9z M262.9,75.4V49.9h6v25.5H262.9z"/>
<path class="st2" d="M281.6,49.4c6.7,0,9.8,5.9,9.8,13.3S288.3,76,281.6,76s-9.8-5.9-9.8-13.3S274.9,49.4,281.6,49.4z M281.7,70.3
	c2,0,3.4-1.6,3.4-7.6s-1.3-7.6-3.5-7.6c-2,0-3.4,1.6-3.4,7.6S279.5,70.3,281.7,70.3L281.7,70.3z"/>
<path class="st2" d="M303.8,49.9v5.7h-2.7v19.8h-6V55.6h-2.7v-5.7h2.7v-4.8h6v4.8C301.1,49.9,303.8,49.9,303.8,49.9z"/>
<path class="st2" d="M311.3,64.4v1.4c0,3.3,1.3,4.5,3.4,4.5c1.5,0,2.7-1,3.1-3.1h6c-1,7.3-5.8,8.8-9.1,8.8c-6.7,0-9.8-5.7-9.8-13.3
	s3.1-13.3,9.8-13.3c6.1,0,9.3,4.8,9.3,12.5v2.5C324,64.4,311.3,64.4,311.3,64.4z M318,60.1V59c0-2.6-1-4.7-3.2-4.7
	c-2.2,0-3.5,2-3.5,4.6V60L318,60.1z"/>
<path class="st2" d="M338.3,59.6c-0.1-3-1.1-4.6-2.6-4.6c-1.9,0-3,1.8-3,7.6s1.1,7.6,3,7.6s2.4-2.5,2.6-4.6h6.4
	c-0.1,5-3.7,10.2-8.6,10.2c-5.8,0-9.7-4.8-9.7-13.3s3.9-13.3,9.7-13.3c4.9,0,8.4,5.2,8.6,10.2L338.3,59.6z"/>
<path class="st2" d="M358.3,75.4V73h-0.1c-0.8,1.9-2.7,3.2-4.8,3c-4.6,0-8-4.1-8-13.3c0-8.6,2.8-13.3,8-13.3c2,0,4.1,0.8,4.8,3.1
	h0.1v-2.6h5.5v25.5H358.3z M357.8,59.7c0-3-1.2-4.3-3.2-4.3c-1.8,0-3.2,1.6-3.2,7.3s1.4,7.3,3.2,7.3c2.1,0,3.2-1.3,3.2-4.3V59.7z"/>
<path class="st2" d="M145.3,375.5v60.9h-10.8l-18-40.5h-0.2v40.5h-11.2v-60.9h12l16.8,37.4h0.1v-37.4H145.3z"/>
<path class="st2" d="M150.3,384.9v-9.4h11.3v9.4H150.3z M150.3,436.4v-47.8h11.3v47.8H150.3z"/>
<path class="st2" d="M166.9,375.5h11.3v60.9h-11.3V375.5z"/>
<path class="st2" d="M183.6,384.9v-9.4h11.3v9.4H183.6z M183.6,436.4v-47.8h11.3v47.8H183.6z"/>
<path class="st2" d="M221.6,388.6v10.6h-5v37.1h-11.4v-37.1h-5v-10.6h5v-9.1h11.3v9.1H221.6z"/>
<path class="st2" d="M247.9,436.4v-4.5h-0.2c-1.9,3.9-4.6,5.5-9.1,5.5c-8.6,0-15.1-7.7-15.1-24.9c0-16.2,5.3-24.9,15.1-24.9
	c3.8,0,7.7,1.4,9.1,5.9h0.2v-4.9h10.3v47.8H247.9z M246.9,406.9c0-5.5-2.2-8.1-6.1-8.1c-3.4,0-6,3-6,13.6s2.6,13.6,6,13.6
	c3.9,0,6.1-2.5,6.1-8.1V406.9z"/>
<path class="st2" d="M280.5,376.8l-7.3,27.5h-4l-7.9-27.5h2.9l7,25l0,0l6.4-25H280.5z"/>
<path class="st2" d="M282.5,380.4V377h2.8v3.4H282.5z M282.5,404.3v-20.9h2.8v20.9H282.5z"/>
<path class="st2" d="M292,394.9c0,3.9,1.8,7.3,5,7.3c2.7,0,3.9-2.6,4.2-5h2.7c0,3.6-2.9,7.5-6.9,7.5c-4.7,0-7.8-3.9-7.8-10.9
	c0-6.2,2.8-10.8,7.6-10.8c4.5,0,7.1,3.7,7.1,10.1v1.8H292z M301.1,392.4c0-4.1-1.4-6.8-4.4-6.8c-2.5,0-4.6,2.7-4.7,6.8H301.1z"/>
<path class="st2" d="M307.3,404.3v-20.9h2.8v2.9h0.1c0.6-2,2.3-3.3,5.2-3.3c4.5,0,6.3,2.9,6.3,6.3v15h-2.8v-14.1
	c0-3-1.4-4.6-3.9-4.6c-2.6-0.1-4.8,1.9-4.9,4.5c0,0.2,0,0.3,0,0.5v13.8L307.3,404.3L307.3,404.3z"/>
<path class="st2" d="M329.6,404.3h-2.8v-18.6h-2.6v-2.3h2.6v-6.5h2.8v6.5h3.2v2.3h-3.2V404.3z"/>
<path class="st2" d="M350.1,393.8c0,5.9-2.3,10.8-8.2,10.8s-8.2-4.9-8.2-10.8s2.3-10.8,8.2-10.8S350.1,388,350.1,393.8z
	 M336.5,393.8c0,5,1.9,8.3,5.4,8.3s5.4-3.3,5.4-8.3s-1.9-8.3-5.4-8.3S336.5,388.9,336.5,393.8z M339.5,381.2l4.2-5.3h2.9l-5.2,5.3
	H339.5z"/>
<path class="st2" d="M363.9,389.5c-0.2-2.5-1.6-4-4.2-4c-2.1,0-3.7,1.1-3.7,3.3c0,4.9,11,1.8,11,9.6c0,3.8-2.8,6.3-7.3,6.3
	c-4.2,0-7.2-2.3-7.2-6.5h2.8c-0.1,2.1,1.6,3.9,3.7,4c0.1,0,0.2,0,0.4,0c2.8,0,4.6-1.1,4.6-3.4c0-5.7-11-1.8-11-10
	c0-3.4,2.7-5.8,6.5-5.8c4.6,0,7.1,2.3,7.2,6.5H363.9z"/>
<path class="st2" d="M281,418.5c-0.3-3.6-2.3-6.7-6.2-6.7c-5,0-7.3,4-7.3,11.7s2.2,11.7,7.4,11.7c4.2,0,6.8-1.8,6.8-9h-9.3v-2.5
	h12.2v3.8c0,6.2-3.5,10.2-10,10.2c-7.2,0-10.3-6-10.3-14.2s3.1-14.2,10.3-14.2c5.8,0,9.1,3.7,9.3,9.2H281z"/>
<path class="st2" d="M303.1,437.2h-2.5v-2.9h-0.1c-1.1,2.6-2.9,3.3-5.4,3.3c-5.2,0-7.4-4.9-7.4-10.8s2.3-10.8,7.6-10.8
	c2.2-0.1,4.3,1.2,5.2,3.3h0.1v-2.9h2.5L303.1,437.2L303.1,437.2z M295.5,435c3.2,0,5-2.2,5-8.3s-1.8-8.3-5-8.3c-3.4,0-5,2.7-5,8.3
	C290.5,431.9,292.1,435,295.5,435L295.5,435z"/>
<path class="st2" d="M317.8,422.4c-0.2-2.5-1.6-4-4.2-4c-2.1,0-3.7,1.1-3.7,3.3c0,4.9,11,1.8,11,9.6c0,3.8-2.8,6.3-7.3,6.3
	c-4.2,0-7.2-2.3-7.2-6.5h2.8c-0.1,2.1,1.6,3.9,3.7,4c0.1,0,0.2,0,0.4,0c2.8,0,4.6-1.1,4.6-3.4c0-5.7-11-1.8-11-10
	c0-3.4,2.7-5.8,6.4-5.8c4.6,0,7.1,2.3,7.2,6.5H317.8z"/>
<path class="st2" d="M327.8,437.2H325v-18.6h-2.6v-2.3h2.6v-6.5h2.8v6.5h3.2v2.3h-3.2V437.2z"/>
<path class="st2" d="M348.3,426.7c0,5.9-2.3,10.8-8.2,10.8c-5.9,0-8.2-4.9-8.2-10.8s2.3-10.8,8.2-10.8S348.3,420.8,348.3,426.7z
	 M334.8,426.7c0,5,1.9,8.3,5.4,8.3s5.4-3.3,5.4-8.3s-1.9-8.3-5.4-8.3C336.7,418.4,334.8,421.8,334.8,426.7z M337.8,414.1l4.2-5.3
	h2.9l-5.2,5.3H337.8z"/>
<path class="st2" d="M351.9,437.2v-20.9h2.8v2.9h0.1c0.6-2,2.3-3.3,5.2-3.3c4.5,0,6.3,2.9,6.3,6.3v15h-2.8V423c0-3-1.4-4.6-3.9-4.6
	c-2.6-0.1-4.8,1.9-4.9,4.5c0,0.2,0,0.3,0,0.5v13.8L351.9,437.2z"/>
</svg>
