<svg id="Layer_4" data-name="Layer 4" xmlns="http://www.w3.org/2000/svg" viewBox="0 0 271.49 395.24"><defs><style>.cls-1{fill:#464646;}.cls-2{fill:#303030;}</style></defs><title>Artboard 2</title><path class="cls-1" d="M161.94,208.8c-8-9.16-28.06-33.38-34.27-39.88h-.59c-1.18,3.54-1.48,10.34-1.48,19.2v64.39c0,13.88.29,52.28,5.32,61.15,1.77,3.25,7.68,5,15.06,5.61l9.15.89a6,6,0,0,1,1.14,3.8h69A45.32,45.32,0,0,0,254,313.78c-5.58-6.53-13.15-15.23-23.49-27Z"/><path class="cls-1" d="M225.33,40.42H46.16C20.67,40.42,0,61.55,0,87.62V276.76A47.47,47.47,0,0,0,19.07,315l.32-.09c2.48-.81,4.75-2.31,6.31-2.48s12.91.39,14.31-1.57.76-17.57,2.85-20.63,12.84-4.51,13.55-5.83,1-2.2,2.51-2.15,1.76,8.07.39,9.15-10.26.58-11.44,2.55-2.23,14.86,0,16,3.79-.33,9.36-.39,7.37-.44,8,1.8.79,3.36-1.88,3.28a19.11,19.11,0,0,0-6.93.67,12.09,12.09,0,0,0-3.83,1.45c-2.26,1-3.12.12-5,1.63s-3,4.14-5.89,3.17,1.63-2.4-2.35-3.41-7.14.45-9.85,1.48a7.76,7.76,0,0,1-1.7.43A45.13,45.13,0,0,0,46.16,324H87.54a4.92,4.92,0,0,1,1.15-3.8l8-.89c6.79-.89,11.52-2.66,13-5.91,4.14-10.63,3.84-46.67,3.84-60.85V167.15c0-8.27-.3-14.47-6.5-21.27-4.13-4.14-11.23-6.2-18.31-7.09l-5-.59c-1.77-1.77-1.77-6.2.59-7.38,12.41.89,28.06.89,33.38.89a95.23,95.23,0,0,0,13.59-.89c5.91,15.07,40.76,54.06,50.51,65L210.38,228c20.38,22.75,34.86,39.29,48.74,53.47h.59c1.18-1.48,1.18-6.2,1.18-12.4V205.85c0-13.88-.29-52.28-5.91-61.15-1.77-2.66-6.5-4.43-18.31-5.91l-5-.59c-2.07-1.77-1.77-6.5.59-7.38,13.59.59,23.63.89,34.86.89h4.4V87.62C271.49,61.55,250.83,40.42,225.33,40.42ZM24.64,178c.52-2.44,1.51-13.1,1.65-17.77s.41-20.93,2.48-23.09,5.95-5.17,5.5,2.39-2.63,13.29-2.19,20.65.17,16.71-1.08,21.13-2.65,6.38-5.32,6.3C21.24,187.5,24.12,180.46,24.64,178ZM6.87,205.78c-1.45-2.86-3.86-5,1.08-6.21s15-3.77,20.23-5.85,15.76-5.54,20.9-5.83,6.68,0,5.92,3.07-3.44,3.46-11.72,4.55-14,5.15-18,5.92-9.65,2.38-11.26,3.89S8.13,208.28,6.87,205.78ZM48.72,273c-3.57.4-2.71-6.1-2-8.3s3.78-7.24,3.79-14.81-.42-8.25-1.44-11.18a7.59,7.59,0,0,0-3.67-4.12s-10.47,7.25-17.16,7.5-15.16.21-16.79-4.74,1.8-8.19,8-12.68,10.23-6.82,13.12-6.73a15.83,15.83,0,0,1,8.8,3.83A27.59,27.59,0,0,0,45.72,225s5-2.08,6.72-1.36-2,6.62-2,6.62,4.93,6.61,4.77,19.08S55,272.29,48.72,273Zm2.51-60.74c-2.47.59-4.26.76-5.76-.84-1.87-2-.1-4.24,2-5.73s4,.34,5.55.61,2.65,1,2.61,2.31S53.7,211.66,51.23,212.25Zm2.85-64.75c-.85,6,3.47,10.8-1.35,15.11s-5.92,4.28-6.67-.2c-.92-5.43-1.77-7.85,1.08-13.78s3.87-9.91,2.46-14.85,3.46-11.26,6.09-2.49S54.93,141.51,54.08,147.5Z"/><path class="cls-1" d="M21.82,234.53c-1.93-3.31,2.87-6.37,6-8.51s4.8-3.86,7.42-2.45,7.23,4,6.51,5.77-1.9,4-8.63,5.31S22.87,236.34,21.82,234.53Z"/><path class="cls-2" d="M23.09,13.4c-.18-5.78-1.88-7.13-4.48-7.13C15.47,6.27,13,9.05,13,16.76s2.42,10.49,5.56,10.49c3.54,0,4.3-3.41,4.48-6.86h7c0,7.35-4.21,13.13-12,13.13-7.26,0-12-5.47-12-16.76S10.81,0,18.07,0c8,0,12.1,5.87,12,13.4Z"/><path class="cls-2" d="M45.4,33V30.56h-.09a4.82,4.82,0,0,1-4.84,3c-4.57,0-8-4.12-8-13.27,0-8.6,2.82-13.27,8-13.27,2,0,4.08.76,4.84,3.14h.09V7.53h5.47V33ZM44.87,17.3c0-3-1.17-4.3-3.23-4.3-1.79,0-3.18,1.61-3.18,7.26s1.39,7.26,3.18,7.26c2.06,0,3.23-1.34,3.23-4.3Z"/><path class="cls-2" d="M59.12,24.83a3.27,3.27,0,0,0,3.45,3.23A2.27,2.27,0,0,0,65,25.5c0-4.35-11.47-.94-11.47-11.11,0-4.26,3-7.4,8.69-7.4s8.16,3.14,8.52,8.07h-6c-.09-1.88-.85-2.87-2.69-2.87a1.91,1.91,0,0,0-2.15,2c0,4.35,11.47.63,11.47,11,0,4.75-3.76,8.34-9,8.34-4.88,0-8.74-2.69-9.28-8.69Z"/><path class="cls-2" d="M86.81,33V30.56h-.09a4.82,4.82,0,0,1-4.84,3c-4.57,0-8-4.12-8-13.27,0-8.6,2.82-13.27,8-13.27,2,0,4.08.76,4.84,3.14h.09V7.53h5.47V33ZM86.27,17.3c0-3-1.16-4.3-3.23-4.3-1.79,0-3.18,1.61-3.18,7.26s1.39,7.26,3.18,7.26c2.06,0,3.23-1.34,3.23-4.3Z"/><path class="cls-2" d="M95.91.54h10c6.27,0,9.14,3.5,9.14,8.16,0,3.94-2.06,6.14-5.47,6.54v.09c4.62.72,6.77,3.59,6.77,8.16,0,5.11-3.27,9.5-9.46,9.5h-11Zm6.81,12.55h1.57c2.56,0,3.81-1.17,3.81-3.32s-1.25-3.23-3.81-3.23h-1.57Zm0,13.89h2.55c2.87,0,4.21-1.61,4.12-3.85.09-2.24-1.26-4-4.12-4h-2.55Z"/><path class="cls-2" d="M119.44,5.56v-5h6v5Zm0,27.43V7.53h6V33Z"/><path class="cls-2" d="M128.58,33V.54h6V9.95h.09A4.07,4.07,0,0,1,139,7c5.2,0,8,4.66,8,13.27,0,9.14-3.45,13.27-8,13.27a4.78,4.78,0,0,1-4.84-3H134V33Zm6-10.4c0,3.32,1.25,4.93,3.22,4.93,2.29,0,3.18-2.33,3.18-7.26S140.1,13,137.81,13c-2,0-3.22,1.61-3.22,4.93Z"/><path class="cls-2" d="M149.82.54h6V33h-6Z"/><path class="cls-2" d="M158.69,5.56v-5h6v5Zm0,27.43V7.53h6V33Z"/><path class="cls-2" d="M177.34,7c6.68,0,9.81,5.92,9.81,13.27S184,33.52,177.34,33.52s-9.82-5.92-9.82-13.27S170.66,7,177.34,7Zm.09,20.88c2,0,3.36-1.61,3.36-7.62s-1.34-7.62-3.54-7.62c-2,0-3.37,1.61-3.37,7.62S175.23,27.87,177.43,27.87Z"/><path class="cls-2" d="M199.57,7.53v5.65h-2.69V33h-6V13.18h-2.69V7.53h2.69V2.69h6V7.53Z"/><path class="cls-2" d="M207,22v1.43c0,3.32,1.34,4.48,3.41,4.48,1.53,0,2.69-1,3.14-3.14h6c-1,7.26-5.82,8.78-9.1,8.78-6.68,0-9.81-5.65-9.81-13.27S203.73,7,210.41,7c6.14,0,9.28,4.84,9.28,12.55V22Zm6.72-4.3V16.58c0-2.6-1-4.66-3.18-4.66s-3.54,2-3.54,4.57v1.17Z"/><path class="cls-2" d="M234,17.21c-.14-3-1.12-4.57-2.56-4.57-1.88,0-3,1.79-3,7.62s1.12,7.62,3,7.62,2.42-2.51,2.56-4.57h6.37c-.14,5-3.68,10.22-8.56,10.22-5.83,0-9.72-4.75-9.72-13.27S226,7,231.83,7c4.89,0,8.43,5.2,8.56,10.22Z"/><path class="cls-2" d="M254.06,33V30.56H254a4.82,4.82,0,0,1-4.84,3c-4.57,0-8-4.12-8-13.27,0-8.6,2.82-13.27,8-13.27,2,0,4.08.76,4.84,3.14h.09V7.53h5.47V33Zm-.53-15.69c0-3-1.16-4.3-3.23-4.3-1.79,0-3.18,1.61-3.18,7.26s1.39,7.26,3.18,7.26c2.06,0,3.23-1.34,3.23-4.3Z"/><path class="cls-2" d="M41,333.12V394H30.27l-18-40.55H12.1V394H.82V333.12H12.77l16.83,37.36h.17V333.12Z"/><path class="cls-2" d="M46,342.54v-9.42H57.27v9.42ZM46,394V346.25H57.27V394Z"/><path class="cls-2" d="M62.66,333.12H73.93V394H62.66Z"/><path class="cls-2" d="M79.32,342.54v-9.42H90.59v9.42Zm0,51.49V346.25H90.59V394Z"/><path class="cls-2" d="M117.35,346.25v10.6h-5V394H101V356.85H96v-10.6h5v-9.09H112.3v9.09Z"/><path class="cls-2" d="M143.6,394v-4.54h-.17c-1.93,3.87-4.63,5.55-9.09,5.55-8.58,0-15.06-7.74-15.06-24.9,0-16.16,5.3-24.9,15.06-24.9,3.79,0,7.66,1.43,9.09,5.89h.17v-4.88h10.26V394Zm-1-29.45c0-5.55-2.19-8.08-6.06-8.08-3.37,0-6,3-6,13.63s2.61,13.63,6,13.63c3.87,0,6.06-2.52,6.06-8.08Z"/><path class="cls-2" d="M176.28,334.41,169,361.9h-4l-7.9-27.48h2.85l7,25H167l6.45-25Z"/><path class="cls-2" d="M178.29,338v-3.42h2.81V338Zm0,23.92V341h2.81V361.9Z"/><path class="cls-2" d="M187.78,352.48c0,3.87,1.78,7.29,5,7.29,2.73,0,3.91-2.62,4.21-5h2.7c0,3.61-2.92,7.55-6.95,7.55-4.71,0-7.78-3.87-7.78-10.86,0-6.23,2.81-10.78,7.59-10.78,4.48,0,7.14,3.72,7.14,10.06v1.78Zm9.11-2.5c0-4.1-1.4-6.83-4.44-6.83-2.51,0-4.63,2.73-4.67,6.83Z"/><path class="cls-2" d="M203,361.9V341h2.81v2.88h.07c.57-2,2.28-3.26,5.2-3.26,4.52,0,6.34,2.88,6.34,6.3v15h-2.81V347.77c0-3-1.37-4.63-3.87-4.63a4.73,4.73,0,0,0-4.93,5V361.9Z"/><path class="cls-2" d="M225.36,361.9h-2.81V343.3h-2.62V341h2.62v-6.46h2.81V341h3.23v2.28h-3.23Z"/><path class="cls-2" d="M245.86,351.46c0,5.89-2.28,10.82-8.2,10.82s-8.2-4.93-8.2-10.82,2.28-10.82,8.2-10.82S245.86,345.57,245.86,351.46Zm-13.59,0c0,5,1.9,8.32,5.39,8.32s5.39-3.34,5.39-8.32-1.9-8.31-5.39-8.31S232.27,346.48,232.27,351.46Zm3-12.64,4.21-5.31h2.92l-5.2,5.31Z"/><path class="cls-2" d="M259.6,347.09c-.19-2.5-1.6-3.95-4.18-3.95-2.12,0-3.72,1.06-3.72,3.26,0,4.86,11,1.82,11,9.57,0,3.8-2.81,6.3-7.33,6.3-4.21,0-7.18-2.32-7.18-6.49H251a3.87,3.87,0,0,0,4.1,4c2.81,0,4.63-1.06,4.63-3.42,0-5.69-11-1.75-11-9.95,0-3.42,2.66-5.77,6.46-5.77,4.56,0,7.14,2.28,7.21,6.45Z"/><path class="cls-2" d="M176.78,376.07c-.34-3.6-2.31-6.72-6.19-6.72-5,0-7.29,3.95-7.29,11.69s2.24,11.69,7.36,11.69c4.21,0,6.79-1.75,6.79-9h-9.26v-2.51h12.22v3.8c0,6.23-3.53,10.17-10,10.17-7.21,0-10.29-6-10.29-14.2s3.08-14.2,10.29-14.2c5.77,0,9.15,3.72,9.34,9.23Z"/><path class="cls-2" d="M198.84,394.78h-2.51v-2.92h-.08c-1.1,2.62-2.85,3.3-5.39,3.3-5.16,0-7.44-4.94-7.44-10.82s2.28-10.82,7.63-10.82a5.54,5.54,0,0,1,5.2,3.26h.08V373.9h2.51Zm-7.63-2.12c3.19,0,5-2.17,5-8.31s-1.78-8.31-5-8.31c-3.42,0-5,2.66-5,8.31C186.24,389.54,187.87,392.66,191.21,392.66Z"/><path class="cls-2" d="M213.57,380c-.19-2.5-1.59-3.95-4.18-3.95-2.12,0-3.72,1.06-3.72,3.26,0,4.86,11,1.82,11,9.56,0,3.8-2.81,6.3-7.33,6.3-4.21,0-7.18-2.32-7.18-6.49H205a3.87,3.87,0,0,0,4.1,4c2.81,0,4.63-1.06,4.63-3.41,0-5.7-11-1.75-11-9.95,0-3.42,2.66-5.77,6.45-5.77,4.55,0,7.14,2.28,7.21,6.45Z"/><path class="cls-2" d="M223.59,394.78h-2.81v-18.6h-2.62V373.9h2.62v-6.45h2.81v6.45h3.23v2.28h-3.23Z"/><path class="cls-2" d="M244.09,384.34c0,5.88-2.28,10.82-8.2,10.82s-8.2-4.94-8.2-10.82,2.27-10.82,8.2-10.82S244.09,378.46,244.09,384.34Zm-13.59,0c0,5,1.9,8.31,5.39,8.31s5.39-3.34,5.39-8.31-1.9-8.31-5.39-8.31S230.5,379.37,230.5,384.34Zm3-12.64,4.21-5.31h2.92l-5.2,5.31Z"/><path class="cls-2" d="M247.66,394.78V373.9h2.81v2.89h.07c.57-2.05,2.28-3.26,5.2-3.26,4.52,0,6.34,2.88,6.34,6.3v15h-2.81V380.66c0-3-1.37-4.63-3.87-4.63a4.73,4.73,0,0,0-4.93,5v13.78Z"/></svg>